# xmcd
#
# Track frame offsets:
#	150
#	27361
#	46771
#	59223
#	78265
#	104200
#	123734
#	144160
#	168300
#	195793
#	215203
#	227655
#	246697
#	272632
#	292177
#	312603
#
# Disc length: 4486 seconds
#
# Revision: 0
# Processed by: cddbd v1.5.2PL0 Copyright (c) Steve Scherf et al.
# Submitted via: EasyCDDAExtractor 2011.3.0.0
#
DISCID=fd118410
DTITLE=Cynthia Peres - Pra Quem Vencer
DYEAR=2009
DGENRE=Gospel
TTITLE0=Pra Quem Vencer
TTITLE1=Bencao Pura
TTITLE2=Toneladas De Uncao
TTITLE3=Imagine So
TTITLE4=Toque De Olhar
TTITLE5=Vaso De Bencao
TTITLE6=Olha Quem Voce Eh
TTITLE7=Pare
TTITLE8=Playback 01
TTITLE9=Playback 02
TTITLE10=Playback 03
TTITLE11=Playback 04
TTITLE12=Playback 05
TTITLE13=Playback 06
TTITLE14=Playback 07
TTITLE15=Playback 08
EXTD=
EXTT0=
EXTT1=
EXTT2=
EXTT3=
EXTT4=
EXTT5=
EXTT6=
EXTT7=
EXTT8=
EXTT9=
EXTT10=
EXTT11=
EXTT12=
EXTT13=
EXTT14=
EXTT15=
PLAYORDER=
